<svg width="654" height="654" viewBox="0 0 654 654" fill="none" xmlns="http://www.w3.org/2000/svg">
<path d="M183.782 252.582L256.001 563.964L256.091 564.351H324.157L324.301 564.097L499.763 253.756H503.106L451.085 566.116L450.988 566.698H548.691C490.468 620.574 412.58 653.5 327 653.5C241.42 653.5 163.532 620.574 105.309 566.698H128.024L128.095 566.281L180.613 252.582H183.782ZM615.727 174.421C639.841 219.958 653.5 271.883 653.5 327C653.5 420.627 614.089 505.045 550.954 564.581L615.727 174.421ZM327 0.5C411.3 0.5 488.135 32.4493 546.064 84.8984H504.346L504.201 85.1494L318.646 407.936H313.692L234.671 85.2793L234.578 84.8984H108.396L108.327 85.3164L41.7979 486.054C15.4947 438.99 0.5 384.747 0.5 327C0.5 146.679 146.679 0.5 327 0.5Z" fill="#95BF47" stroke="#95BF47"/>
</svg>
